<svg width="26" height="34" viewBox="0 0 26 34" fill="none" xmlns="http://www.w3.org/2000/svg">
<path d="M25.6682 11.7439C25.6682 6.15022 22.4583 0.122559 15.3778 0.122559H3.43527C1.73593 0.122559 0.319824 1.5692 0.319824 3.30516V30.6948C0.319824 32.4308 1.73593 33.8774 3.43527 33.8774C5.1818 33.8774 6.59792 32.4308 6.59792 30.6948V6.53598H15.3778C19.1541 6.53598 19.4373 10.4901 19.4373 11.7439C19.4373 12.7565 19.0596 13.8656 18.4932 14.83C17.5963 16.3249 18.0212 18.302 19.5317 19.2182C20.995 20.1826 22.9303 19.7004 23.8272 18.2055C25.0073 16.2285 25.6682 13.9138 25.6682 11.7439ZM15.9442 20.0379C15.9442 18.302 14.5753 16.8553 12.8288 16.8553C11.1294 16.8553 9.71334 18.302 9.71334 20.0379C9.71334 21.8221 11.1294 23.2688 12.8288 23.2688C14.5753 23.2688 15.9442 21.8221 15.9442 20.0379Z" fill="url(#paint0_linear_18_9)"/>
<defs>
<linearGradient id="paint0_linear_18_9" x1="-4.45845e-09" y1="-1.77117e-08" x2="26" y2="34" gradientUnits="userSpaceOnUse">
<stop stop-color="#6938FF"/>
<stop offset="1" stop-color="#8057FF" stop-opacity="0.6"/>
</linearGradient>
</defs>
</svg>
