<svg width="168" height="36" viewBox="0 0 168 36" fill="none" xmlns="http://www.w3.org/2000/svg">
<path d="M25.6682 12.7439C25.6682 7.15022 22.4583 1.12256 15.3778 1.12256H3.43527C1.73593 1.12256 0.319824 2.5692 0.319824 4.30516V31.6948C0.319824 33.4308 1.73593 34.8774 3.43527 34.8774C5.1818 34.8774 6.59792 33.4308 6.59792 31.6948V7.53598H15.3778C19.1541 7.53598 19.4373 11.4901 19.4373 12.7439C19.4373 13.7565 19.0596 14.8656 18.4932 15.83C17.5963 17.3249 18.0212 19.302 19.5317 20.2182C20.995 21.1826 22.9303 20.7004 23.8272 19.2055C25.0073 17.2285 25.6682 14.9138 25.6682 12.7439ZM15.9442 21.0379C15.9442 19.302 14.5753 17.8553 12.8288 17.8553C11.1294 17.8553 9.71334 19.302 9.71334 21.0379C9.71334 22.8221 11.1294 24.2688 12.8288 24.2688C14.5753 24.2688 15.9442 22.8221 15.9442 21.0379Z" fill="#A385FF"/>
<path d="M35.4511 18C35.4511 11.7312 40.4075 6.668 46.544 6.668C49.5178 6.668 51.9252 7.63243 53.8133 8.74152C55.5598 9.70594 57.3064 9.65772 58.156 8.35575C59.1473 6.90911 59.0529 4.98026 57.7312 3.87117C54.1437 0.881452 49.7066 0.254578 46.544 0.254578C36.9616 0.254578 29.173 8.16286 29.173 18C29.173 25.1367 33.327 31.2608 39.3218 34.1059C41.7292 35.215 44.1366 35.7454 46.544 35.7454C49.4706 35.7454 50.509 34.2988 50.509 32.7075C50.509 31.2126 49.565 30.0553 47.2992 29.8142C44.9862 29.5731 43.0981 29.0427 41.3044 27.9818C37.7641 26.0047 35.4511 22.3399 35.4511 18ZM56.1735 32.5628C57.92 32.5628 59.3361 31.1162 59.3361 29.332C59.3361 27.596 57.92 26.1494 56.1735 26.1494C54.4741 26.1494 53.058 27.596 53.058 29.332C53.058 31.1162 54.4741 32.5628 56.1735 32.5628Z" fill="#8E73DE"/>
<path d="M93.9245 18C93.9245 7.53599 87.4577 1.12256 76.9785 1.12256H68.4346H68.3874H68.3402C66.6409 1.12256 65.2248 2.5692 65.2248 4.30516V31.6948C65.2248 33.4308 66.6409 34.8774 68.3402 34.8774C70.0867 34.8774 71.5029 33.4308 71.5029 31.6948V7.29488H76.9785C84.059 7.29488 87.6937 11.0079 87.6937 18C87.6937 20.7968 86.8912 23.2561 85.4751 25.0403C85.1447 25.4261 84.7198 25.9083 84.3894 26.294C83.0677 27.6442 83.1149 29.4767 84.059 30.634C85.1919 31.9842 87.1744 32.1288 88.4961 31.0197C91.9892 27.9818 93.9245 23.0632 93.9245 18ZM80.8963 31.6948C80.8963 29.9106 79.4802 28.464 77.7337 28.464C76.0344 28.464 74.6183 29.9106 74.6183 31.6948C74.6183 33.4308 76.0344 34.8774 77.7337 34.8774C79.4802 34.8774 80.8963 33.4308 80.8963 31.6948Z" fill="#715BB2"/>
<path d="M113.109 24.3652C114.761 24.3652 116.083 23.015 116.083 21.3272C116.083 19.6395 114.761 18.2893 113.109 18.2893H102.299C100.647 18.2893 99.3257 19.6395 99.3257 21.3272C99.3257 23.015 100.647 24.3652 102.299 24.3652H113.109Z" fill="#524182"/>
<path d="M127.311 34.8774C129.057 34.8774 130.473 33.4308 130.473 31.6948V13.0332C130.473 11.2972 129.057 9.85061 127.311 9.85061C125.611 9.85061 124.195 11.2972 124.195 13.0332V31.6948C124.195 33.4308 125.611 34.8774 127.311 34.8774ZM127.311 6.668C129.057 6.668 130.473 5.22137 130.473 3.43718C130.473 1.70121 129.057 0.254578 127.311 0.254578C125.611 0.254578 124.195 1.70121 124.195 3.43718C124.195 5.22137 125.611 6.668 127.311 6.668Z" fill="#392C5C"/>
<path d="M144.834 2.66561C143.37 0.929643 141.813 0.8332 140.633 1.5083C139.122 2.32806 138.98 3.7747 138.98 4.98023V31.6948C138.98 33.4308 140.397 34.8774 142.096 34.8774C143.842 34.8774 145.258 33.4308 145.258 31.6948V12.5992L161.638 33.0932C162.157 33.7201 162.535 34.1541 163.243 34.5399C164.565 35.215 165.745 34.781 166.5 34.2023C167.444 33.3825 167.68 32.4181 167.68 31.309V13.8529C167.68 12.117 166.264 10.6703 164.518 10.6703C162.818 10.6703 161.402 12.117 161.402 13.9012V23.449L144.834 2.66561ZM164.565 1.12253C162.818 1.12253 161.402 2.52095 161.402 4.30513C161.402 6.08932 162.818 7.48773 164.565 7.48773C166.264 7.48773 167.68 6.08932 167.68 4.30513C167.68 2.52095 166.264 1.12253 164.565 1.12253Z" fill="#271D3F"/>
</svg>
